<?xml version="1.0"?>
<svg id="Layer_2" data-name="Layer 2" xmlns="http://www.w3.org/2000/svg" viewBox="0 0 157.5 152.68">
  <defs>
    
  </defs>
  <g id="dsgn">
    <path class="cls-1" d="M147.62,36.81c-6.59-11.57-15.77-20.6-27.55-27.08C108.29,3.24,94.73,0,79.37,0s-29.44,3.32-41.32,9.96c-11.88,6.64-21.19,15.67-27.93,27.08C3.37,48.46,0,61.53,0,76.26s3.29,28.17,9.88,39.69c6.59,11.52,15.74,20.52,27.47,27,11.72,6.48,25.26,9.73,40.62,9.73s29.47-3.3,41.4-9.88c11.93-6.59,21.27-15.61,28.01-27.08,6.74-11.46,10.12-24.46,10.12-38.99s-3.3-28.35-9.88-39.92ZM118.67,105.28c-1.61,9.7-4.82,17.41-9.65,23.11-4.83,5.71-11.18,9.08-19.06,10.12-7.99,1.24-15.33-.1-22.02-4.05-6.69-3.94-12.45-10.3-17.28-19.06-4.83-8.77-8.38-19.84-10.66-33.23-2.28-13.49-2.67-25.06-1.17-34.71,1.5-9.65,4.67-17.3,9.49-22.96,4.83-5.65,11.18-9.16,19.06-10.51,8.09-1.24,15.51.16,22.25,4.2,6.74,4.05,12.53,10.43,17.36,19.14,4.82,8.72,8.38,19.87,10.66,33.46,2.28,13.28,2.62,24.77,1.01,34.47Z"></path>
  </g>
</svg>