<?xml version="1.0"?>
<svg id="Layer_2" data-name="Layer 2" xmlns="http://www.w3.org/2000/svg" viewBox="0 0 203.54 212.49">
  <defs>
    
  </defs>
  <g id="dsgn">
    <path class="cls-1" d="M34.09,212.49c21.23-71.02,28.56-95.55,28.73-96.24,13.94-55.46,22.66-79.94,45.39-79.94,5.33,0,9.96,1.99,13.82,5.86,3.92,3.92,6.62,9.6,8.14,17.16l3.4,12.65c3.1,10.48,7.38,18.8,12.83,25.01,5.45,6.27,13.06,9.37,22.84,9.37,10.42,0,18.8-3.69,25.01-11.01,6.27-7.38,9.31-17.33,9.31-29.98,0-18.27-6.85-33.67-20.67-46.32C169.11,6.33,150.54,0,127.17,0c-15.75,0-62.19,5.16-86.09,78.42-3.09,9.47-27.61,90.82-41.09,134.07h34.09Z"></path>
  </g>
</svg>