<svg width="113" height="36" viewBox="0 0 113 36" fill="none" xmlns="http://www.w3.org/2000/svg">
<g clip-path="url(#clip0_6_4562)">
<path d="M6.74731 23.6048C6.74731 19.0131 10.1248 15.7363 14.8173 15.7363C18.5237 15.7363 21.3303 17.741 22.0761 20.9746L18.918 21.7504C18.3697 19.7673 16.8787 18.6244 14.8173 18.6244C12.0101 18.6244 10.1022 20.6507 10.1022 23.6042C10.1022 26.5577 12.0101 28.584 14.8173 28.584C16.9667 28.584 18.5457 27.3552 18.962 25.178L22.1421 25.9111C21.5063 29.382 18.6331 31.4727 14.8173 31.4727C10.1242 31.4727 6.74731 28.1958 6.74731 23.6042V23.6048Z" fill="#1D1C1F"/>
<path d="M23.6252 15.413H26.8707V20.8021H26.9147C27.8794 19.8965 29.1956 19.4007 30.7306 19.4007C34.0641 19.4007 36.3009 21.5346 36.3009 24.6173V31.1494H33.0554V25.0488C33.0554 23.3025 31.9153 22.2461 30.0294 22.2461C28.1435 22.2461 26.8713 23.3885 26.8713 25.0488V31.1494H23.6258V15.413H23.6252Z" fill="#1D1C1F"/>
<path d="M37.8759 28.0672C37.8759 25.9544 39.2794 24.8337 42.9852 24.3379C45.156 24.0362 45.7484 23.7346 45.7484 23.1739C45.7484 22.4192 44.9372 21.9667 43.687 21.9667C42.196 21.9667 41.0773 22.7641 40.7924 24.0146L37.7224 23.3896C38.1827 21.0184 40.5736 19.4019 43.5996 19.4019C46.9985 19.4019 49.1039 21.1049 49.1039 23.886V31.1505H46.1873V29.9H46.1433C45.4415 30.8699 43.9505 31.4738 42.218 31.4738C39.6303 31.4738 37.8759 30.0941 37.8759 28.0678V28.0672ZM46.0119 26.9032V25.5452H45.9678C45.683 25.955 45.0686 26.1917 43.4896 26.4724C41.5817 26.8173 40.9019 27.1839 40.9019 27.8521C40.9019 28.5203 41.4722 28.8436 42.7004 28.8436C44.5863 28.8436 46.0119 28.0029 46.0119 26.9032Z" fill="#1D1C1F"/>
<path d="M50.8584 19.7246H53.9064V20.8237H53.9504C54.8057 19.9614 55.9678 19.5089 57.3714 19.5089C58.0071 19.5089 58.6215 19.6165 59.2793 19.8106L58.5995 22.6776C57.9637 22.5051 57.5468 22.4402 56.911 22.4402C55.1786 22.4402 54.1039 23.5609 54.1039 25.9322V31.1488H50.8584V19.7235V19.7246Z" fill="#1D1C1F"/>
<path d="M65.5579 22.4408V27.2698C65.5579 27.9813 65.7994 28.197 66.742 28.197H68.8694V31.1505H66.4131C63.4525 31.1505 62.3124 29.9865 62.3124 27.4645V22.442H59.896V19.7258H62.3124V16.8588H65.5579V19.7258H69.3077V22.442H65.5579V22.4408Z" fill="#1D1C1F"/>
<path d="M70.8147 16.0602H74.1702V21.9667H81.1875V16.0602H84.543V31.15H81.1875V24.9629H74.1702V31.15H70.8147V16.0602Z" fill="#1D1C1F"/>
<path d="M85.8064 25.437C85.8064 22.031 88.5475 19.4013 92.3634 19.4013C96.1792 19.4013 98.9203 22.0316 98.9203 25.437C98.9203 28.8424 96.2012 31.4727 92.3634 31.4727C88.5255 31.4727 85.8064 28.8424 85.8064 25.437ZM95.6749 25.437C95.6749 23.5832 94.3807 22.2034 92.3634 22.2034C90.346 22.2034 89.0519 23.5832 89.0519 25.437C89.0519 27.2908 90.346 28.6706 92.3634 28.6706C94.3807 28.6706 95.6749 27.2908 95.6749 25.437Z" fill="#1D1C1F"/>
<path d="M100.062 19.7246H103.176V20.7378H103.22C104.119 19.8322 105.478 19.4013 106.969 19.4013C110.412 19.4013 113 22.0099 113 25.437C113 28.8641 110.434 31.4727 106.991 31.4727C105.544 31.4727 104.097 30.9769 103.351 30.2654H103.307V35.9994H100.062V19.7241V19.7246ZM109.755 25.437C109.755 23.5183 108.417 22.2251 106.465 22.2251C104.755 22.2251 103.307 23.3674 103.307 24.7039V26.1479C103.307 27.5276 104.689 28.67 106.487 28.67C108.395 28.67 109.755 27.3552 109.755 25.4364V25.437Z" fill="#1D1C1F"/>
<path d="M15.926 4.763C16.0654 4.30691 15.9118 3.85837 15.5827 3.76115C15.2537 3.66393 14.8739 3.95485 14.7345 4.41093C14.595 4.86702 14.7487 5.31557 15.0777 5.41279C15.4067 5.51001 15.7865 5.21909 15.926 4.763Z" fill="#6E37FF"/>
<path d="M23.4487 12.4846C23.2512 13.4347 21.9565 14.2666 19.863 13.7176C19.4753 13.6159 18.8621 13.4423 17.788 13.1418C16.8311 12.8746 15.7831 12.7922 14.7049 12.7922C12.1588 12.7922 9.77926 13.3867 8.12352 14.5963C6.84483 15.5305 6.34525 16.2338 6.03599 16.0666C5.88136 15.983 5.89504 15.7235 6.11509 15.4569C10.9366 9.6077 18.0526 11.8544 20.1176 12.4069C20.6731 12.5554 21.0733 12.5332 21.2422 12.2999C21.5188 11.917 21.1542 11.5031 20.6076 11.1365C19.9273 10.6787 18.9644 10.2958 18.6004 10.142C15.2187 8.7103 12.6935 8.66353 12.6935 8.66353C12.6935 8.66353 15.3073 8.28528 17.1879 7.37035C17.7368 7.10317 18.0259 6.88101 18.1014 6.82898C18.5225 6.53726 19.0137 6.10463 19.1071 5.66441C19.1315 5.51241 19.116 5.39724 19.0096 5.19613C18.8585 4.92018 18.6837 4.66587 18.4838 4.43144C15.7231 1.30078 8.08664 1.74684 4.13878 2.09177C3.59995 2.13854 2.84642 2.14322 2.41047 2.4443C2.24097 2.56123 2.21481 2.81846 2.27428 2.91258C2.67751 3.55392 7.9784 4.36421 10.6048 4.83951C11.2393 4.23442 12.4514 3.59835 12.502 3.57263C12.4817 3.60244 11.9328 4.53083 11.6735 5.51066C11.6568 5.57379 11.6378 5.63869 11.598 5.74918C11.5147 5.98069 11.3732 6.16836 11.0859 6.23033C10.669 6.31919 10.3805 6.38175 10.3627 6.39168C9.58776 6.6004 8.82174 6.8588 8.09735 7.20607C6.24653 8.09294 5.39784 8.80326 4.76385 9.2505C4.65442 9.32825 4.41295 9.29259 4.272 9.21016C4.17982 9.15637 3.84974 8.96169 3.40963 8.90674C2.92968 8.84711 2.33613 8.96988 1.74556 9.59718C1.26561 10.1064 0.794574 11.3294 1.50409 12.3478C1.84666 12.8389 2.09169 12.822 1.90495 13.2295C1.7182 13.6363 1.20554 14.9348 1.04972 16.6168C0.795763 19.3616 1.28761 20.4081 0.768405 20.4081C0.683953 20.4227 0.609611 20.373 0.580469 20.2976C0.576305 20.2859 0.573332 20.2759 0.571547 20.2642C0.0226054 17.7691 0.0850528 15.3692 0.805279 13.1967C0.824311 13.1388 0.815984 13.0769 0.7803 13.0278C0.654216 12.8524 0.35209 12.3847 0.162369 11.8129C-0.125484 10.9447 -0.0790946 9.48961 0.722016 8.58695C2.11786 7.01489 3.87293 7.69598 4.31542 7.90118C4.38381 7.93275 4.46291 7.92165 4.52119 7.87371C5.37643 7.16631 6.3625 6.52556 7.48536 5.96082C7.53948 5.93509 7.58944 5.90762 7.64356 5.88248C7.05002 5.77841 4.64252 5.31247 3.64455 5.11428C3.18542 5.02308 2.25644 4.87575 1.81514 4.68517C0.132037 3.96257 -0.1689 2.04266 1.34946 0.970463C2.12262 0.423839 3.06587 0.341992 3.97225 0.264237C5.49716 0.122173 7.03217 0.00758648 8.57908 0.000570985C11.7199 -0.0128754 15.0498 0.139127 17.9063 1.63226C19.0292 2.22624 20.0682 3.19964 20.654 4.34901C21.6116 6.15491 20.205 7.65681 18.6985 8.54193C18.6985 8.54193 18.6991 8.54252 18.7021 8.54369C18.8526 8.59923 23.8656 10.4846 23.4487 12.4852V12.4846Z" fill="#6E37FF"/>
</g>
<defs>
<clipPath id="clip0_6_4562">
<rect width="113" height="36" fill="white"/>
</clipPath>
</defs>
</svg>
