<?xml version="1.0" standalone="no"?>
<!DOCTYPE svg PUBLIC "-//W3C//DTD SVG 1.1//EN" "http://www.w3.org/Graphics/SVG/1.1/DTD/svg11.dtd">
<svg xmlns="http://www.w3.org/2000/svg" id="Layer_1" viewBox="0 0 713.23 115.14" width="713.22998046875" height="115.13999938964844"><defs><style>.cls-1{fill:#1062fb;}</style></defs><path class="cls-1" d="M128.08,0l-58.64,8.4-5.4,15.12-5.4-15.12L0,0,19.6,54.64l24.08,3.45,20.37,57.05,20.37-57.05,24.07-3.45L128.08,0Zm-19.35,23.51l-24.13,3.46-3.89,10.91,24.11-3.45-3.92,10.93-24.09,3.45-12.78,35.79-12.78-35.79-24.09-3.45-3.92-10.93,24.11,3.45-3.89-10.91-24.13-3.46-3.92-10.93,35.63,5.11,12.99,36.38,12.99-36.38,35.63-5.11-3.92,10.93Z"/><g><g><path d="M139.56,53.5c0-3.61,.41-7.25,1.22-10.92,.82-3.67,2.2-7.37,4.15-11.12,1.95-3.74,4.36-7.05,7.22-9.91,2.86-2.87,6.54-5.22,11.06-7.04,4.51-1.82,9.51-2.74,15.01-2.74,3.99,0,7.7,.44,11.13,1.31,3.43,.87,6.39,2.04,8.87,3.49,2.48,1.45,4.73,3.15,6.74,5.11,2.01,1.95,3.66,3.97,4.95,6.03,1.29,2.06,2.38,4.23,3.28,6.48,.89,2.25,1.55,4.31,1.96,6.17,.41,1.86,.67,3.65,.78,5.36h-12.62c-.45-7.33-2.91-13.05-7.38-17.17s-10.13-6.17-16.99-6.17c-3.65,0-7.11,.7-10.37,2.1-3.26,1.4-6.13,3.38-8.61,5.95-2.48,2.57-4.44,5.84-5.9,9.81-1.45,3.97-2.18,8.39-2.18,13.27s.74,9.1,2.21,12.99c1.47,3.89,3.46,7.1,5.98,9.61,2.52,2.52,5.41,4.45,8.69,5.81s6.78,2.04,10.51,2.04c6.86,0,12.49-1.93,16.91-5.79,4.41-3.86,6.79-9.19,7.12-15.98h12.62c-.15,2.64-.62,5.32-1.42,8.04-.8,2.72-2.13,5.56-3.97,8.54-1.85,2.98-4.11,5.61-6.8,7.9-2.68,2.29-6.18,4.18-10.49,5.67-4.31,1.49-9.11,2.23-14.4,2.23s-10.59-.9-15.15-2.71c-4.57-1.8-8.31-4.13-11.23-6.97s-5.38-6.11-7.38-9.79c-2.01-3.68-3.43-7.33-4.26-10.94-.83-3.61-1.25-7.16-1.25-10.66Z"/><path d="M221.63,63.02c0-5.78,1.3-11.06,3.91-15.86,2.61-4.79,6.21-8.56,10.81-11.3,4.6-2.74,9.69-4.11,15.27-4.11s10.63,1.37,15.21,4.11c4.59,2.74,8.19,6.5,10.82,11.3,2.63,4.79,3.94,10.08,3.94,15.86s-1.3,11.08-3.91,15.91-6.22,8.63-10.82,11.44c-4.6,2.8-9.69,4.2-15.24,4.2s-10.67-1.4-15.27-4.21c-4.6-2.8-8.2-6.61-10.81-11.43-2.6-4.81-3.91-10.11-3.91-15.91Zm11.44,0c0,6.08,1.77,11.35,5.3,15.81,3.54,4.46,7.95,6.69,13.23,6.69s9.6-2.23,13.17-6.69c3.57-4.46,5.36-9.73,5.36-15.81s-1.79-11.18-5.36-15.5c-3.57-4.33-7.97-6.49-13.17-6.49s-9.7,2.16-13.23,6.49c-3.53,4.33-5.3,9.49-5.3,15.5Z"/><path d="M286.66,62.57c0-5.42,1.22-10.5,3.66-15.24,2.44-4.74,5.77-8.52,9.99-11.34,4.22-2.82,8.79-4.24,13.7-4.24,2.76,0,5.35,.46,7.79,1.39,2.44,.93,4.53,2.16,6.28,3.72,1.75,1.55,3.22,3.14,4.41,4.75,1.19,1.61,2.19,3.3,3.01,5.07V13.11h11.44V93.17h-11.44v-13.3c-1.86,4.28-4.56,7.81-8.1,10.56-3.53,2.76-7.74,4.14-12.62,4.14-3.87,0-7.56-.89-11.08-2.66-3.52-1.77-6.51-4.11-8.99-7.02-2.48-2.91-4.44-6.31-5.89-10.21-1.45-3.89-2.18-7.93-2.18-12.11Zm11.44,.11c0,3.73,.76,7.34,2.26,10.83s3.75,6.42,6.73,8.79c2.98,2.37,6.34,3.55,10.1,3.55,3.53,0,6.74-1.04,9.6-3.11s5.07-4.78,6.61-8.11c1.55-3.34,2.32-6.93,2.32-10.77,0-2.76-.43-5.51-1.28-8.26-.86-2.74-2.06-5.25-3.6-7.53-1.55-2.28-3.54-4.11-6-5.51-2.46-1.4-5.15-2.1-8.1-2.1-3.53,0-6.75,1.09-9.66,3.28-2.91,2.18-5.13,4.96-6.67,8.34-1.55,3.38-2.32,6.91-2.32,10.61Z"/><path d="M353.73,63.47c0-5.73,1.18-11,3.55-15.8,2.36-4.8,5.78-8.65,10.27-11.56,4.49-2.91,9.59-4.36,15.33-4.36,8.6,0,15.57,3.09,20.91,9.27,5.34,6.18,8.1,14.07,8.29,23.67h-46.9c0,6.14,1.71,11.2,5.14,15.18,3.42,3.99,8,5.98,13.73,5.98,3.91,0,7.36-.98,10.36-2.93,2.99-1.95,5.11-4.79,6.34-8.51l9.49,4.13c-1.94,4.69-5.08,8.53-9.44,11.53-4.36,3-9.79,4.5-16.3,4.5-9.16,0-16.57-2.93-22.25-8.79-5.67-5.86-8.51-13.29-8.51-22.3Zm11.78-6.2h34.67c-.63-5.32-2.57-9.45-5.81-12.39s-7.03-4.41-11.39-4.41-8.38,1.55-11.64,4.64c-3.26,3.09-5.2,7.14-5.83,12.17Z"/><path d="M419.78,61.96h12.62c0,4.02,.65,7.54,1.95,10.55,1.3,3.02,3.06,5.36,5.27,7.03,2.21,1.67,4.58,2.91,7.11,3.71,2.53,.8,5.22,1.2,8.09,1.2,3.34,0,6.45-.46,9.31-1.4s5.22-2.37,7.08-4.3c1.86-1.93,2.79-4.23,2.79-6.87,0-1.16-.19-2.21-.56-3.18-.37-.97-.86-1.82-1.45-2.57-.6-.75-1.43-1.45-2.51-2.12-1.08-.67-2.15-1.25-3.21-1.73s-2.49-1-4.28-1.55c-1.79-.55-3.38-.99-4.75-1.31-1.37-.33-3.14-.75-5.32-1.28-3.06-.73-5.42-1.3-7.06-1.69s-3.86-1.04-6.67-1.92c-2.81-.89-5-1.85-6.56-2.87-1.56-1.02-3.2-2.27-4.91-3.73-1.71-1.47-2.95-3.22-3.71-5.26-.77-2.04-1.15-4.33-1.15-6.85,0-3.13,.63-6.12,1.9-8.95,1.27-2.83,3.12-5.39,5.56-7.66s5.63-4.08,9.58-5.42c3.95-1.34,8.42-2.02,13.41-2.02,4.43,0,8.44,.57,12.01,1.7,3.58,1.14,6.56,2.65,8.94,4.55,2.39,1.9,4.38,4.15,5.98,6.75,1.6,2.61,2.76,5.32,3.47,8.15,.71,2.83,1.06,5.79,1.06,8.88h-12.62c0-6.49-1.57-11.44-4.71-14.84-3.14-3.4-7.74-5.09-13.79-5.09-5.61,0-10.04,1.24-13.29,3.71-3.25,2.48-4.88,5.53-4.88,9.16,0,1.4,.31,2.64,.94,3.74,.63,1.1,1.38,2.01,2.27,2.72s2.19,1.43,3.92,2.15,3.63,1.32,5.69,1.81,4.3,1.03,6.71,1.61c1.79,.43,3.42,.82,4.9,1.17,1.48,.36,3.15,.83,5.03,1.42,1.88,.59,3.53,1.17,4.97,1.72,1.44,.56,2.97,1.22,4.58,1.99,1.61,.78,3.03,1.59,4.24,2.44,1.21,.85,2.41,1.84,3.56,2.96,1.16,1.13,2.12,2.31,2.87,3.54,.75,1.24,1.35,2.63,1.79,4.18,.45,1.55,.68,3.19,.68,4.93,0,6.73-2.91,12.32-8.74,16.77-5.83,4.44-13.52,6.67-23.05,6.67-10.88,0-19.43-2.92-25.67-8.76-6.24-5.84-9.35-13.79-9.35-23.84Z"/><path d="M493.49,93.17V33.15h11.44v60.02h-11.44Z"/><path d="M512.55,62.96c0-3.98,.68-7.86,2.04-11.64,1.36-3.78,3.21-7.11,5.55-9.99s5.23-5.2,8.65-6.95c3.42-1.75,7.09-2.62,11-2.62,4.43,0,8.47,1.03,12.12,3.1,3.65,2.07,6.12,4.73,7.42,8v-9.58h11.44v56.48c0,3.31-.54,6.44-1.62,9.38-1.08,2.94-2.69,5.6-4.83,7.98-2.14,2.38-4.97,4.27-8.49,5.66-3.52,1.4-7.53,2.09-12.03,2.09-3.65,0-7.03-.47-10.16-1.4-3.13-.93-5.73-2.13-7.82-3.6-2.08-1.47-3.88-3.13-5.38-4.97-1.51-1.84-2.6-3.64-3.27-5.39-.67-1.75-1.02-3.4-1.06-4.97h11.89c.22,3.46,1.88,6.38,4.97,8.76s6.66,3.57,10.72,3.57c2.05,0,3.99-.34,5.84-1.04,1.84-.69,3.53-1.7,5.08-3.02,1.55-1.33,2.77-3.12,3.68-5.38,.91-2.26,1.37-4.85,1.37-7.76v-11.03c-.56,1.61-1.3,3.12-2.23,4.52-.93,1.4-2.14,2.78-3.63,4.13-1.49,1.35-3.4,2.41-5.72,3.17-2.33,.77-4.94,1.15-7.85,1.15-7.89,0-14.48-2.72-19.76-8.15-5.28-5.43-7.93-12.28-7.93-20.54Zm11.44-.22c0,6.33,1.87,11.5,5.61,15.5,3.74,4,8.16,6,13.26,6s9.25-2.05,12.45-6.16c3.2-4.11,4.8-9.07,4.8-14.89,0-3.81-.67-7.35-2.01-10.61-1.34-3.26-3.4-5.94-6.17-8.05-2.77-2.11-5.98-3.17-9.63-3.17-5.32,0-9.7,2.07-13.15,6.19-3.44,4.13-5.16,9.19-5.16,15.19Z"/><path d="M578.63,93.17V33.15h11.44v16.02c1.75-5.25,4.51-9.46,8.28-12.64,3.77-3.18,8.41-4.77,13.92-4.77,6.69,0,11.92,2.33,15.69,6.98,3.77,4.65,5.66,11.02,5.66,19.09v35.34h-11.44v-29.7c0-14.96-4.62-22.44-13.87-22.44-2.87,0-5.5,.74-7.88,2.21-2.39,1.47-4.31,3.38-5.76,5.72-1.45,2.34-2.58,4.9-3.38,7.68s-1.2,5.53-1.2,8.29v28.25h-11.44Z"/><path d="M640.27,78.32c0-2.01,.45-3.9,1.34-5.67,.89-1.77,2.01-3.29,3.35-4.58,1.34-1.29,3.07-2.54,5.19-3.77,2.12-1.23,4.14-2.24,6.06-3.04,1.92-.8,4.16-1.67,6.73-2.6l19.1-6.86v-.39c0-.97-.25-2.03-.75-3.18-.5-1.15-1.26-2.33-2.26-3.54s-2.45-2.21-4.33-3.02c-1.88-.8-4.01-1.2-6.39-1.2-4.73,0-8.5,1.5-11.31,4.5-2.81,3-4.24,7.14-4.27,12.42h-11.78c.19-7.67,2.75-13.85,7.69-18.56,4.94-4.71,11.42-7.06,19.45-7.06,7.42,0,13.51,2.07,18.27,6.23s7.13,9.85,7.13,17.11v38.07h-11.44v-17.7c-1.79,5.69-4.51,10.3-8.18,13.82-3.67,3.52-8.23,5.27-13.71,5.27-5.8,0-10.57-1.58-14.29-4.75-3.72-3.16-5.58-7-5.58-11.5Zm12.12-1.06c0,2.08,.98,3.95,2.93,5.58,1.95,1.64,4.53,2.46,7.73,2.46s5.96-.89,8.51-2.68c2.55-1.79,4.55-4.01,6-6.67s2.56-5.33,3.32-8.01c.76-2.68,1.15-5.14,1.15-7.37l-16.58,5.86c-4.21,1.45-7.43,3.05-9.69,4.8-2.25,1.75-3.38,3.76-3.38,6.03Z"/><path d="M701.78,93.17V13.11h11.44V93.17h-11.44Z"/></g><rect x="492.76" y="13.13" width="12.84" height="12.25"/></g></svg>