<svg xmlns="http://www.w3.org/2000/svg" fill="CurrentColor" height="24" viewBox="0 0 127 24" width="127"><mask height="24" id="mask0_2223_200614" maskUnits="userSpaceOnUse" style="mask-type:alpha" width="98" x="29" y="0"><path d="M32.1113 10.9258H29.9572V7.71096H32.1113V6.70239C32.1113 5.79887 32.2622 4.93739 32.564 4.11792C32.8658 3.29845 33.3028 2.5893 33.8752 1.99046C34.4475 1.39162 35.1447 0.913601 35.9668 0.556396C36.7889 0.199192 37.7203 0.020592 38.7609 0.020592C39.9472 0.020592 41.0346 0.214951 42.0232 0.603673C43.0118 0.992396 43.9432 1.48092 44.8173 2.06926L43.1627 5.22105C42.6216 4.73777 41.9868 4.34905 41.2584 4.05488C40.5299 3.76072 39.7911 3.61363 39.0419 3.61363C38.1053 3.61363 37.4133 3.9078 36.9658 4.49613C36.5183 5.08447 36.2946 5.76735 36.2946 6.5448V7.71096H45.067V23.3438H40.8838V10.9258H36.2946V23.3438H32.1113V10.9258ZM62.5846 23.3438H58.4013V14.0776C58.4013 12.7538 58.1723 11.7873 57.7145 11.1779C57.2566 10.5686 56.6218 10.2639 55.8101 10.2639C55.3939 10.2639 54.9672 10.348 54.5302 10.5161C54.0931 10.6842 53.6821 10.9205 53.297 11.2252C52.912 11.5299 52.5634 11.8923 52.2512 12.3126C51.939 12.7328 51.7101 13.1951 51.5644 13.6994V23.3438H47.3811V6.82846H51.1586V9.8857C51.7621 8.83509 52.6362 8.01564 53.7809 7.4273C54.9256 6.83896 56.216 6.5448 57.652 6.5448C58.6719 6.5448 59.5043 6.7339 60.1495 7.11212C60.7947 7.49034 61.2942 7.98411 61.648 8.59346C62.0018 9.20281 62.2464 9.8962 62.3817 10.6736C62.5169 11.4511 62.5846 12.239 62.5846 13.0375V23.3438ZM71.5482 23.5394C70.4243 23.5394 69.3837 23.3188 68.4264 22.8776C67.469 22.4363 66.6469 21.827 65.9601 21.0495C65.2733 20.2721 64.7374 19.3633 64.3523 18.3232C63.9673 17.2831 63.7748 16.1642 63.7748 14.9666C63.7748 13.7689 63.9569 12.6553 64.3211 11.6257C64.6853 10.5961 65.19 9.69257 65.8352 8.91512C66.4804 8.13768 67.2504 7.52834 68.1454 7.08709C69.0403 6.64583 70.0185 6.42521 71.0799 6.42521C72.2871 6.42521 73.3745 6.71938 74.3423 7.30771C75.3101 7.89605 76.0645 8.66298 76.6056 9.60852V-3.05176e-05H80.7889V18.3705C80.7889 18.8118 80.8618 19.1269 81.0074 19.316C81.1531 19.5051 81.4029 19.6102 81.7567 19.6312V23.2243C81.0283 23.3713 80.4351 23.4449 79.9772 23.4449C79.228 23.4449 78.614 23.2558 78.1353 22.8776C77.6566 22.4993 77.3861 22.0056 77.3237 21.3962L77.23 20.3561C76.6264 21.4067 75.8096 22.1999 74.7793 22.7357C73.7491 23.2715 72.6721 23.5394 71.5482 23.5394ZM72.6409 19.9464C73.0363 19.9464 73.4421 19.8781 73.8584 19.7415C74.2746 19.6049 74.6597 19.4106 75.0135 19.1584C75.3673 18.9063 75.6847 18.6121 75.9656 18.2759C76.2466 17.9398 76.4599 17.572 76.6056 17.1728V13.2331C76.4391 12.7708 76.205 12.3453 75.9032 11.9566C75.6014 11.5679 75.258 11.2317 74.873 10.948C74.488 10.6644 74.0821 10.4385 73.6555 10.2704C73.2288 10.1023 72.8074 10.0183 72.3911 10.0183C71.7667 10.0183 71.1892 10.1548 70.6585 10.428C70.1278 10.7011 69.6751 11.0741 69.3005 11.5469C68.9258 12.0196 68.6345 12.5607 68.4264 13.17C68.2182 13.7794 68.1142 14.4097 68.1142 15.0611C68.1142 15.7545 68.2286 16.3954 68.4576 16.9837C68.6865 17.572 68.9987 18.0868 69.3941 18.5281C69.7896 18.9693 70.263 19.316 70.8146 19.5682C71.3661 19.8203 71.9749 19.9464 72.6409 19.9464ZM91.0325 23.5394C89.7213 23.5394 88.535 23.3136 87.4736 22.8618C86.4122 22.41 85.5068 21.7954 84.7576 21.018C84.0083 20.2406 83.4308 19.3371 83.0249 18.3075C82.6191 17.2779 82.4162 16.1958 82.4162 15.0611C82.4162 13.8844 82.6139 12.7761 83.0093 11.736C83.4048 10.6959 83.9771 9.78187 84.7264 8.99392C85.4756 8.20597 86.3861 7.58087 87.458 7.11861C88.5298 6.65634 89.7317 6.42521 91.0637 6.42521C92.3957 6.42521 93.5872 6.65634 94.6383 7.11861C95.6893 7.58087 96.5842 8.20072 97.3231 8.97816C98.0619 9.75561 98.6238 10.6591 99.0089 11.6887C99.3939 12.7183 99.5864 13.7899 99.5864 14.9035C99.5864 15.1767 99.5812 15.4393 99.5708 15.6915C99.5604 15.9436 99.5344 16.1537 99.4928 16.3218H86.8492C86.9117 16.9732 87.0678 17.551 87.3175 18.0553C87.5673 18.5596 87.8898 18.9903 88.2853 19.3476C88.6807 19.7048 89.1282 19.9779 89.6277 20.167C90.1272 20.3561 90.6475 20.4507 91.1886 20.4507C92.0211 20.4507 92.8068 20.2458 93.5456 19.8361C94.2845 19.4263 94.7891 18.8853 95.0597 18.2129L98.6498 19.2215C98.0463 20.4822 97.0837 21.517 95.7621 22.326C94.4405 23.135 92.864 23.5394 91.0325 23.5394ZM95.2782 13.6994C95.1742 12.4597 94.7215 11.4668 93.9202 10.7209C93.119 9.97499 92.146 9.60204 91.0013 9.60204C90.4394 9.60204 89.9139 9.70184 89.4248 9.90146C88.9357 10.1011 88.5038 10.3795 88.1292 10.7367C87.7546 11.0939 87.4476 11.5246 87.2082 12.0289C86.9689 12.5332 86.8284 13.09 86.7868 13.6994H95.2782ZM126.095 23.3438H121.912V14.0776C121.912 12.7538 121.688 11.7873 121.24 11.1779C120.793 10.5686 120.174 10.2639 119.383 10.2639C118.55 10.2639 117.77 10.5843 117.042 11.2252C116.313 11.8661 115.793 12.7013 115.481 13.7309V23.3438H111.297V14.0776C111.297 12.7538 111.074 11.7873 110.626 11.1779C110.179 10.5686 109.559 10.2639 108.769 10.2639C107.957 10.2639 107.182 10.5791 106.443 11.2094C105.704 11.8398 105.178 12.6698 104.866 13.6994V23.3438H100.683V6.82846H104.46V9.8857C105.064 8.81408 105.891 7.98937 106.942 7.41154C107.993 6.83371 109.195 6.5448 110.548 6.5448C111.922 6.5448 112.983 6.88099 113.732 7.55337C114.482 8.22576 114.96 9.05572 115.168 10.0433C115.834 8.90864 116.677 8.0419 117.697 7.44306C118.717 6.84422 119.882 6.5448 121.194 6.5448C122.193 6.5448 123.015 6.7339 123.66 7.11212C124.305 7.49034 124.805 7.98411 125.158 8.59346C125.512 9.20281 125.757 9.8962 125.892 10.6736C126.027 11.4511 126.095 12.239 126.095 13.0375V23.3438Z" fill="CurrentColor"></path></mask><g mask="url(#mask0_2223_200614)"><path d="M26.0842 -17.6824H134.866V41.1089H26.0842V-17.6824Z" fill="CurrentColor"></path></g><path d="M5.11143 21.4331C5.11143 22.8508 3.9672 24 2.55572 24C1.14423 24 0 22.8508 0 21.4331C0 20.0154 1.14423 18.8662 2.55572 18.8662C3.9672 18.8662 5.11143 20.0154 5.11143 21.4331Z" fill="CurrentColor"></path><path d="M0 3.8296C0 2.41192 1.14925 1.26266 2.56693 1.26266H20.5562C21.9739 1.26266 23.1232 2.41192 23.1232 3.8296C23.1232 5.24727 21.9739 6.39653 20.5562 6.39653H2.56693C1.14925 6.39653 0 5.24727 0 3.8296Z" fill="CurrentColor"></path><path d="M0 12.6314C0 11.2137 1.14925 10.0644 2.56693 10.0644H13.2542C14.6719 10.0644 15.8211 11.2137 15.8211 12.6314C15.8211 14.049 14.6719 15.1983 13.2542 15.1983H2.56693C1.14926 15.1983 0 14.049 0 12.6314Z" fill="CurrentColor"></path></svg>