<svg xmlns="http://www.w3.org/2000/svg" width="131.976" height="20" viewBox="0 0 131.976 20">
  <g id="WardenAI_logotype" data-name="WardenAI logotype" transform="translate(-0.324 -0.347)">
    <path id="Path_17979" data-name="Path 17979" d="M19.554,15.188,15.676.626H11.884L7.981,15.2,4.252.626H.324L5.709,20.018H9.92L13.761,6.076l3.853,13.942h4.212L27.211.626H23.283Z" transform="translate(0 0.019)" fill="#1c1c1c"/>
    <path id="Path_17980" data-name="Path 17980" d="M37.965,7.639a5.045,5.045,0,0,0-2.137-1.765,7.4,7.4,0,0,0-3.174-.632,7.977,7.977,0,0,0-2.754.465,6.8,6.8,0,0,0-2.186,1.288,4.887,4.887,0,0,0-1.359,1.944l2.878,1.36a3.4,3.4,0,0,1,1.284-1.55,3.543,3.543,0,0,1,2.013-.584,2.926,2.926,0,0,1,1.951.62,1.878,1.878,0,0,1,.741,1.515v3.637a3.516,3.516,0,0,1-.469,1.777,3.313,3.313,0,0,1-1.321,1.264,4.115,4.115,0,0,1-1.951.453A2.426,2.426,0,0,1,30.036,17a1.34,1.34,0,0,1-.58-1.157,1.652,1.652,0,0,1,.506-1.228,3.2,3.2,0,0,1,1.556-.656l2.458-.405V10.942l-3.125.489A8.455,8.455,0,0,0,28,12.314a4.206,4.206,0,0,0-1.667,1.55,3.985,3.985,0,0,0-.543,2.1A3.88,3.88,0,0,0,26.4,18.11a4,4,0,0,0,1.754,1.419,6.568,6.568,0,0,0,2.68.489,7.205,7.205,0,0,0,2.211-.322,5.478,5.478,0,0,0,1.778-.942,5.161,5.161,0,0,0,.593-.561v1.5h3.335V10.275a4.655,4.655,0,0,0-.766-2.648Z" transform="translate(1.708 0.328)" fill="#1c1c1c"/>
    <path id="Path_17981" data-name="Path 17981" d="M45.628,6.007a3.376,3.376,0,0,0-1.334,1.538v-2h-3.31V19.7h3.532V11.815A3.408,3.408,0,0,1,45.43,9.3,3.312,3.312,0,0,1,47.851,8.4h1.272V5.387h-.865A5.209,5.209,0,0,0,45.628,6.007Z" transform="translate(2.727 0.338)" fill="#1c1c1c"/>
    <path id="Path_17982" data-name="Path 17982" d="M61.753.347V7.323A5.885,5.885,0,0,0,60.234,6.2a6.664,6.664,0,0,0-2.976-.632,7.315,7.315,0,0,0-6.41,3.649,7.355,7.355,0,0,0-.976,3.745,7.3,7.3,0,0,0,.976,3.745,7.039,7.039,0,0,0,2.643,2.659,7.317,7.317,0,0,0,3.8.978,7.069,7.069,0,0,0,2.939-.608,5.113,5.113,0,0,0,1.729-1.264v1.562H65.31V.347H61.753Zm-.531,14.824a3.778,3.778,0,0,1-1.445,1.515,4.386,4.386,0,0,1-4.249,0,3.685,3.685,0,0,1-1.47-1.515,4.535,4.535,0,0,1-.519-2.206,4.456,4.456,0,0,1,.519-2.194,4.019,4.019,0,0,1,3.594-2.075,4.048,4.048,0,0,1,2.124.561,3.87,3.87,0,0,1,1.445,1.515,4.824,4.824,0,0,1,0,4.4Z" transform="translate(3.323 0)" fill="#1c1c1c"/>
    <path id="Path_17983" data-name="Path 17983" d="M80.761,9.487a6.612,6.612,0,0,0-1.408-2.194,6.348,6.348,0,0,0-2.223-1.5A7.748,7.748,0,0,0,74.1,5.242,7.3,7.3,0,0,0,70.4,6.2a7.107,7.107,0,0,0-2.618,2.612,7.4,7.4,0,0,0-.963,3.793,7.552,7.552,0,0,0,.939,3.745A7.01,7.01,0,0,0,70.4,19.028a7.79,7.79,0,0,0,3.964.99,8.062,8.062,0,0,0,2.754-.441,6.966,6.966,0,0,0,2.174-1.228,4.84,4.84,0,0,0,1.346-1.789l-2.853-1.348a3.442,3.442,0,0,1-1.346,1.324,3.934,3.934,0,0,1-2.05.489,4.274,4.274,0,0,1-2.149-.537,3.4,3.4,0,0,1-1.4-1.55,3.844,3.844,0,0,1-.346-1.264V13.6a9.019,9.019,0,0,1-.037-1.443,10.077,10.077,0,0,1,.124-1.169.173.173,0,0,1,.012-.072,3.8,3.8,0,0,1,.235-.775A3.339,3.339,0,0,1,72.14,8.581a3.921,3.921,0,0,1,3.94.012,3.1,3.1,0,0,1,1.186,1.479,3.217,3.217,0,0,1,.2.906H71.906c-.037.37-.062.787-.074,1.216a11.88,11.88,0,0,0,.074,1.383h9.152a2.778,2.778,0,0,0,.136-.68q.037-.376.037-.751a7.3,7.3,0,0,0-.482-2.671Z" transform="translate(4.46 0.328)" fill="#1c1c1c"/>
    <path id="Path_17984" data-name="Path 17984" d="M93.173,5.921a5.926,5.926,0,0,0-2.865-.68,5.355,5.355,0,0,0-2.729.668,3.821,3.821,0,0,0-1.42,1.4V5.564h-3.31V19.72H86.38v-8.3a3.186,3.186,0,0,1,.383-1.61,2.648,2.648,0,0,1,1.05-1.049,3.288,3.288,0,0,1,3.075,0,2.7,2.7,0,0,1,1.037,1.049,3.318,3.318,0,0,1,.383,1.61v8.3H95.84V10.608a5.483,5.483,0,0,0-.7-2.8,4.942,4.942,0,0,0-1.951-1.884Z" transform="translate(5.535 0.328)" fill="#1c1c1c"/>
    <path id="Path_17985" data-name="Path 17985" d="M112.7.626h-4.743l-6.928,19.38h3.952l1.457-4.162h6.2l-1-3.125h-4.15L110.33,4.55l2.829,8.169c.357,1.038.7,2.087,1.05,3.125l1.432,4.162h3.99Z" transform="translate(6.754 0.019)" fill="#1c1c1c"/>
    <path id="Path_17986" data-name="Path 17986" d="M124.236.626h-3.669v19.38h3.669Z" transform="translate(8.065 0.019)" fill="#1c1c1c"/>
  </g>
</svg>
