<?xml version="1.0"?>
<svg id="Layer_2" data-name="Layer 2" xmlns="http://www.w3.org/2000/svg" viewBox="0 0 196.54 222.01">
  <defs>
    
  </defs>
  <g id="dsgn">
    <path class="cls-1" d="M193.14,212.25c-13.58-2.81-27.01-6.82-39.71-12.3-22-9.14-41.68-23.3-57.92-40.77,1.05-3.36,2.14-6.68,3.11-9.91,7.76-25.98,10.36-34.67,10.42-34.9,4.18-16.64,6.8-23.99,13.62-23.99,1.6,0,2.99.6,4.15,1.76,1.18,1.18,1.99,2.88,2.44,5.15l1.02,3.8c.93,3.15,2.21,5.64,3.85,7.5,1.63,1.88,3.92,2.81,6.85,2.81,3.13,0,5.64-1.11,7.5-3.3,1.88-2.21,2.79-5.2,2.79-9,0-5.48-2.06-10.1-6.2-13.9-4.13-3.81-9.7-5.71-16.71-5.71-4.73,0-18.66,1.55-25.83,23.53-1.17,3.58-12.53,41.35-14.64,47.44-14.85-18.19-26.13-39.31-32.74-61.71,1.51-2.28,3.02-4.55,4.5-6.82,9.75-15.38,25.34-36.13,25.18-55.02C85.14,11.07,74.88-.77,58.41.04c-19.94,1.97-29.03,25.46-30.21,42.52-.49,18.03,2.41,35.9,7.94,52.98C15.59,123.34-4.58,154.11.92,184.46c5.43,29.61,38.43,49.15,64.45,29.85,11.53-9.26,18.61-22.76,23.97-36.88,28.4,24.97,65.02,40.38,102.67,43.3,2.23.16,4.2-1.49,4.48-3.71,0-.04,0-.09.02-.11.26-2.21-1.19-4.2-3.37-4.66ZM49.98,23.01c1.19-5.71,3.65-11.76,9.61-13.13,5.69-1.12,12.05,1.88,14.36,7.52,5.59,13.67-2.74,27.68-9.98,39.41-3.51,5.75-7.73,11.72-12.28,17.92-3.43-16.94-4.16-34.41-1.7-51.73ZM71.13,187.97c-8.91,14.72-22.76,25.04-39.26,15.92-14.69-8.56-19.22-26.34-15.32-42.47,4.43-18.35,14.15-35.48,24.79-51.91,7.12,17.03,16.76,33.02,28.19,47.27,3.51,4.37,7.24,8.54,11.19,12.51-2.88,6.68-6.03,13.02-9.59,18.68Z"></path>
  </g>
</svg>