<?xml version="1.0"?>
<svg id="Layer_2" data-name="Layer 2" xmlns="http://www.w3.org/2000/svg" viewBox="0 0 318.45 281.75">
  <defs>
    
  </defs>
  <g id="dsgn">
    <g>
      <g>
        <path class="cls-2" d="M126.88,112.6c-.56-.61-1.66-1.15-3.31-1.63-1.75-.32-3.28-.92-4.58-1.79-1.3-.88-2.51-2.22-3.62-4.02l-36.49-58.01,22.07-21.64c2.6-2.44,4.78-4.42,6.53-5.93,1.75-1.51,3.19-2.67,4.3-3.46,1.11-.8,2.12-1.42,3.03-1.87.9-.45,1.86-.78,2.87-1,1.7-.53,2.85-1.05,3.46-1.55.61-.5.92-1.21.92-2.11,0-1.01-.32-1.78-.96-2.31-.64-.53-1.7-.8-3.19-.8h-30.11c-1.38,0-2.43.25-3.15.76-.72.5-1.08,1.29-1.08,2.35,0,.9.23,1.59.68,2.07.45.48,1.23.93,2.35,1.35l4.7.96c1.54.53,2.6,1.27,3.19,2.23.58.96.62,2.11.12,3.47-.51,1.35-1.63,2.85-3.39,4.5l-43.49,43.7V18.32c0-1.12.33-2.02,1-2.71.66-.69,1.66-1.22,2.99-1.59l5.1-.88c2.02-.58,3.03-1.78,3.03-3.58,0-1.01-.33-1.78-1-2.31-.66-.53-1.69-.8-3.07-.8H18.82c-1.43,0-2.48.25-3.15.76-.67.5-1,1.29-1,2.35,0,1.81.98,3,2.95,3.58l5.1.88c1.27.37,2.23.9,2.87,1.59.64.69.96,1.59.96,2.71v87.78c0,1.11-.32,2.02-.96,2.71-.64.69-1.59,1.22-2.87,1.59l-5.1.88c-1.97.58-2.95,1.78-2.95,3.59,0,.96.33,1.71,1,2.27.66.56,1.71.84,3.15.84h15.79c.88-6.42,5.81-12.09,12.56-13.25.19-.03.37-.05.56-.08v-26.97l15.79-15.48,27.23,42.95c1.01,1.59,1.46,2.83,1.35,3.7-.11.88-.74,1.45-1.91,1.71l-4.7.96c-1.01.21-1.75.58-2.23,1.12-.48.53-.72,1.27-.72,2.23,0,1.01.36,1.78,1.08,2.31.72.53,1.79.8,3.23.8h36.64c1.38,0,2.43-.28,3.15-.84.72-.56,1.08-1.29,1.08-2.19,0-.96-.28-1.74-.84-2.35Z"></path>
        <path class="cls-2" d="M195.19,47.87c.42-.53.64-1.09.64-1.67,0-.85-.32-1.54-.96-2.07-.64-.53-1.54-.8-2.71-.8h-22.46c-1.12,0-1.99.25-2.63.76-.64.51-.96,1.21-.96,2.11,0,.8.24,1.47.72,2.03.48.56,1.25.94,2.31,1.16l3.58.64c2.39.53,3.8,1.47,4.22,2.83.42,1.35,0,3.6-1.27,6.73l-17.07,43-18.06-44.03c-1.27-2.97-1.71-5.06-1.31-6.25.4-1.19,1.79-2.03,4.18-2.51l3.43-.56c1.06-.21,1.82-.57,2.27-1.08.45-.5.68-1.15.68-1.95,0-.9-.32-1.61-.96-2.11-.64-.5-1.51-.76-2.63-.76h-33.78c-1.06,0-1.91.27-2.55.8-.64.53-.96,1.22-.96,2.07,0,.74.2,1.35.6,1.83.4.48,1.08.9,2.03,1.27,2.12.48,3.7,1.12,4.74,1.91,1.04.8,2.06,2.36,3.07,4.7l30.11,68.39-3.27,8.08c-1.7,4.09-3.23,7.22-4.58,9.4-1.35,2.18-2.62,3.66-3.78,4.46-1.17.8-2.42,1.2-3.74,1.2s-2.38-.47-3.31-1.39c-.93-.93-1.58-2.3-1.95-4.1l-.8-3.03c-.74-2.5-1.77-4.49-3.07-5.97-1.3-1.49-3.12-2.23-5.46-2.23-2.5,0-4.49.88-5.97,2.63-1.49,1.75-2.23,4.14-2.23,7.17,0,4.35,1.65,8.05,4.94,11.07,3.29,3.03,7.73,4.54,13.3,4.54,16.33,0,21.53-16.96,24.77-25.01l29.39-73.13c1.22-2.81,2.46-4.81,3.7-5.97,1.25-1.17,3.12-2.07,5.62-2.71,1.01-.42,1.73-.9,2.15-1.43Z"></path>
        <path class="cls-2" d="M227.83,112.16l-3.43-.88c-1.01-.32-1.75-.82-2.23-1.51-.48-.69-.72-1.75-.72-3.19V4.38c0-1.38-.36-2.46-1.08-3.23-.72-.77-1.79-1.16-3.23-1.16-.8,0-1.73.13-2.79.4-1.06.27-2.47.74-4.22,1.43l-14.34,5.02c-1.27.43-2.15.88-2.63,1.35s-.72,1.11-.72,1.91c0,.64.2,1.17.6,1.59.4.43,1.02.72,1.87.88l4.94.24c.9.21,1.53.56,1.87,1.04.35.48.52,1.35.52,2.63v90.17c0,1.38-.23,2.42-.68,3.11-.45.69-1.16,1.2-2.11,1.51l-3.58.8c-.96.37-1.65.78-2.07,1.23-.43.45-.64,1.07-.64,1.87,0,.85.29,1.53.88,2.03.58.5,1.49.76,2.71.76h30.11c1.22,0,2.12-.25,2.71-.76.58-.5.88-1.18.88-2.03,0-.8-.21-1.42-.64-1.87-.43-.45-1.09-.84-1.99-1.16Z"></path>
        <path class="cls-2" d="M300.91,77.27c1.46-1.33,2.19-3.24,2.19-5.74,0-5.79-1.29-10.94-3.86-15.45-2.58-4.51-6.29-8.06-11.15-10.63-4.86-2.58-10.63-3.86-17.33-3.86-7.91,0-14.78,1.75-20.59,5.26-5.81,3.5-10.26,8.31-13.34,14.42-3.08,6.11-4.62,13.06-4.62,20.87s1.59,14.22,4.78,19.87c3.19,5.66,7.63,10.04,13.34,13.14,5.71,3.11,12.33,4.66,19.88,4.66,6.16,0,11.66-1.1,16.49-3.31,4.83-2.2,8.69-5.16,11.59-8.88,2.89-3.72,4.47-7.78,4.74-12.19.05-.9-.11-1.69-.48-2.35-.37-.66-.93-1-1.67-1-.53,0-1.02.17-1.47.52-.45.35-1.05.97-1.79,1.87-1.65,3.77-4.33,6.76-8.04,8.96-3.72,2.2-8.1,3.31-13.14,3.31-7.97,0-14.42-2.64-19.36-7.93-4.28-4.58-6.69-11.1-7.27-19.56h44.79c2.76,0,4.87-.66,6.33-1.99ZM279.92,73.92h-30.22c.12-5.02.88-9.4,2.34-13.06,1.59-3.98,3.78-7.05,6.57-9.2,2.79-2.15,6.01-3.23,9.68-3.23,4.73,0,8.48,1.89,11.27,5.66,2.79,3.77,4.18,9.21,4.18,16.33,0,2.34-1.27,3.5-3.82,3.5Z"></path>
        <path class="cls-2" d="M229.52,231.43c-.69-.11-1.35,0-1.99.32-.64.32-1.25,1.06-1.83,2.23-2.87,6.37-7,11.31-12.39,14.82-5.39,3.51-11.75,5.26-19.08,5.26-7.7,0-14.54-1.95-20.51-5.85-5.97-3.9-10.71-9.65-14.22-17.25-3.5-7.59-5.26-16.83-5.26-27.72,0-7.17.85-13.63,2.55-19.4,1.7-5.76,4.07-10.7,7.13-14.82,3.05-4.11,6.66-7.29,10.83-9.52,4.17-2.23,8.77-3.35,13.82-3.35s9.48.86,13.62,2.59c4.14,1.73,7.98,4.47,11.51,8.24,3.53,3.77,6.73,8.9,9.6,15.37.48,1.12,1.14,1.9,1.99,2.35.85.45,1.86.57,3.03.36.96-.16,1.74-.68,2.35-1.55.61-.88.7-1.84.28-2.91l-8.36-27.56c-.37-1.17-.85-2.03-1.43-2.59-.58-.56-1.25-.84-1.99-.84-1.22,0-2.18.49-2.87,1.47-.69.98-1.34,1.97-1.95,2.95-.61.98-1.53,1.47-2.75,1.47-1.06,0-2.55-.57-4.46-1.71-1.91-1.14-4.57-2.26-7.97-3.35-3.4-1.09-7.81-1.63-13.22-1.63-7.6,0-14.63,1.46-21.11,4.38-6.48,2.92-12.11,7.04-16.89,12.35-4.78,5.31-8.5,11.56-11.15,18.76-2.66,7.2-3.98,15.07-3.98,23.62,0,11.31,2.22,21.32,6.65,30.03,4.43,8.71,10.75,15.53,18.96,20.47,8.21,4.94,17.99,7.41,29.35,7.41,6.8,0,12.88-.93,18.24-2.79,5.36-1.86,9.93-4.35,13.7-7.49,3.77-3.13,6.65-6.57,8.64-10.32,1.99-3.74,3.01-7.47,3.07-11.19,0-.8-.15-1.41-.44-1.83-.29-.42-.78-.69-1.47-.8Z"></path>
        <path class="cls-2" d="M313.4,205.5c-3.37-5.92-8.07-10.54-14.1-13.86-6.03-3.32-12.97-4.98-20.83-4.98s-15.07,1.7-21.15,5.1c-6.08,3.4-10.85,8.02-14.3,13.86-3.45,5.84-5.18,12.53-5.18,20.07s1.69,14.42,5.06,20.31c3.37,5.89,8.06,10.5,14.06,13.82s12.93,4.98,20.79,4.98,15.08-1.69,21.19-5.06,10.89-7.99,14.34-13.86c3.45-5.87,5.18-12.52,5.18-19.95s-1.69-14.51-5.06-20.43ZM298.58,240.55c-.82,4.97-2.47,8.91-4.94,11.83-2.47,2.92-5.72,4.65-9.76,5.18-4.09.64-7.85-.05-11.27-2.07-3.43-2.02-6.37-5.27-8.84-9.76-2.47-4.49-4.29-10.16-5.46-17.01-1.17-6.9-1.37-12.83-.6-17.76.77-4.94,2.39-8.85,4.86-11.75,2.47-2.89,5.72-4.69,9.76-5.38,4.14-.64,7.94.08,11.39,2.15,3.45,2.07,6.41,5.34,8.88,9.8,2.47,4.46,4.29,10.17,5.46,17.13,1.17,6.8,1.34,12.68.52,17.64Z"></path>
      </g>
      <path class="cls-1" d="M158.34,273.75c-11.14-2.31-22.14-5.59-32.56-10.08-18.04-7.49-34.17-19.1-47.48-33.42.86-2.75,1.76-5.47,2.55-8.13,6.37-21.3,8.5-28.43,8.54-28.61,3.43-13.64,5.58-19.67,11.17-19.67,1.31,0,2.45.49,3.4,1.44.97.97,1.63,2.36,2,4.22l.84,3.11c.76,2.58,1.82,4.62,3.16,6.15,1.34,1.54,3.21,2.31,5.62,2.31,2.56,0,4.62-.91,6.15-2.71,1.54-1.82,2.29-4.26,2.29-7.38,0-4.49-1.69-8.28-5.09-11.4-3.39-3.13-7.95-4.68-13.7-4.68-3.88,0-15.3,1.27-21.18,19.29-.96,2.93-10.27,33.9-12,38.9-12.17-14.91-21.42-32.23-26.84-50.6,1.24-1.87,2.48-3.73,3.69-5.59,8-12.61,20.77-29.62,20.64-45.11.26-12.99-8.15-22.7-21.65-22.04-16.35,1.61-23.8,20.87-24.76,34.86-.4,14.78,1.97,29.43,6.51,43.44C12.78,200.85-3.76,226.08.75,250.96c4.45,24.27,31.51,40.29,52.84,24.48,9.45-7.59,15.26-18.66,19.65-30.24,23.28,20.47,53.3,33.11,84.18,35.5,1.83.13,3.44-1.22,3.67-3.04,0-.03,0-.07.01-.09.22-1.81-.98-3.44-2.77-3.82ZM40.98,118.59c.98-4.68,3-9.64,7.88-10.76,4.67-.92,9.88,1.54,11.77,6.17,4.58,11.21-2.25,22.69-8.18,32.31-2.88,4.71-6.34,9.61-10.07,14.69-2.81-13.89-3.41-28.21-1.4-42.41ZM58.32,253.84c-7.3,12.07-18.66,20.53-32.18,13.05-12.04-7.02-15.76-21.6-12.56-34.82,3.63-15.04,11.6-29.09,20.33-42.56,5.83,13.96,13.74,27.07,23.11,38.75,2.88,3.59,5.94,7,9.18,10.26-2.36,5.47-4.94,10.68-7.87,15.31Z"></path>
    </g>
  </g>
</svg>