<?xml version="1.0"?>
<svg id="Layer_2" data-name="Layer 2" xmlns="http://www.w3.org/2000/svg" viewBox="0 0 153.1 148.42">
  <defs>
    
  </defs>
  <g id="dsgn">
    <path class="cls-1" d="M153.1,74.59c0,14.11-3.27,26.75-9.83,37.89-6.56,11.15-15.63,19.92-27.24,26.33-11.59,6.39-25.01,9.61-40.23,9.61s-28.09-3.16-39.49-9.47c-11.39-6.29-20.29-15.05-26.7-26.24C3.2,101.52,0,88.67,0,74.14s3.27-27.04,9.83-38.13c6.56-11.08,15.6-19.87,27.15-26.31C48.53,3.23,61.93,0,77.16,0s28.11,3.16,39.55,9.47c11.45,6.31,20.38,15.08,26.78,26.31,6.41,11.25,9.61,24.19,9.61,38.81Z"></path>
  </g>
</svg>